<svg xmlns="http://www.w3.org/2000/svg" width="285" height="491" viewBox="0 0 285 491">
    <g fill="none" fill-rule="evenodd" opacity=".803">
        <path fill="#2AC653" d="M284.278 183.59c0 101.393-82.218 183.592-183.64 183.592C-.78 367.182-83 284.983-83 183.59-83 82.196-.78 0 100.639 0 202.06 0 284.278 82.196 284.278 183.59"/>
        <path fill="#47D76D" d="M208.55 160.879c0 76.31-61.875 138.166-138.2 138.166-76.327 0-138.202-61.856-138.202-138.166 0-76.308 61.875-138.167 138.202-138.167 76.325 0 138.2 61.859 138.2 138.167"/>
        <path fill="#77E995" d="M215.283 145.644c0 22.795-18.484 41.277-41.286 41.277-22.801 0-41.285-18.482-41.285-41.277 0-22.796 18.484-41.275 41.285-41.275 22.802 0 41.286 18.48 41.286 41.275M237.84 214.625c0 16.938-13.732 30.664-30.669 30.664-16.94 0-30.672-13.726-30.672-30.664 0-16.932 13.732-30.66 30.672-30.66 16.937 0 30.67 13.728 30.67 30.66M217.938 283.606c0 16.935-13.732 30.661-30.669 30.661-16.94 0-30.672-13.726-30.672-30.66 0-16.936 13.732-30.665 30.672-30.665 16.937 0 30.67 13.729 30.67 30.664"/>
        <path fill="#43E36E" d="M45.445 239.83c0 16.936-13.733 30.662-30.67 30.662-16.94 0-30.671-13.726-30.671-30.661 0-16.936 13.732-30.661 30.671-30.661 16.937 0 30.67 13.725 30.67 30.66M49.426 172.178c0 16.932-13.732 30.658-30.67 30.658-16.939 0-30.671-13.726-30.671-30.658 0-16.938 13.732-30.664 30.672-30.664 16.937 0 30.669 13.726 30.669 30.664"/>
        <path fill="#77E995" d="M121.077 101.874c0 16.932-13.732 30.658-30.67 30.658-16.94 0-30.671-13.726-30.671-30.658 0-16.938 13.732-30.664 30.672-30.664 16.937 0 30.669 13.726 30.669 30.664"/>
        <path fill="#F5F5F5" d="M174.418 226.206l36.108 5.952-28.171-11.105 42.453-24.595-125.602 43.38-2.666-39.503 94.147-45.53-41.664 11.111-.793-20.629-3.569 21.817-49.153 17.967-5.603-83.022-8.841 103.211-46.708-21.496-2.776-19.834-1.193 18.643-32.138-12.296 81.55 49.76-5.248 61.273L29.2 256.75l-9.526-36.888v32.13l-29.757-10.708 83.225 56.49-17.92 192.703 60.871-.481-10.588-156.835 98.673-52.608-24.997 6.845-1.19-24.698-4.763 26.183-69.042 24.726-3.182-47.132z"/>
    </g>
</svg>
