<svg xmlns="http://www.w3.org/2000/svg" width="317" height="631" viewBox="0 0 317 631">
    <g fill="none" fill-rule="evenodd">
        <path fill="#54D275" d="M300.634 186.31c28.585-54.445 109.371-63.702 158.295-32.603 35.774 22.657 59.301 80.66 32.53 115.652-26.77 34.985-71.753 54.44-114.992 51.314-55.071-7.195-99.554-64.573-82.94-117.22 1.654-5.761 3.965-11.438 7.107-17.144M221.032 205.842c-15.583-47.802-79.327-66.25-122.937-47.802-31.872 13.42-58.715 57.022-41.94 88.888 16.776 31.867 50.32 53.668 85.55 57.022 45.29 1.671 88.907-38.57 82.703-83.302-.53-4.88-1.623-9.77-3.376-14.806"/>
        <path fill="#6CDF8A" d="M205.647 213.617c-9.223-28.431-46.955-39.4-72.773-28.431-18.867 7.973-34.751 33.917-24.822 52.87 9.926 18.946 29.785 31.92 50.64 33.914 26.81.997 52.624-22.945 48.959-49.554a40.144 40.144 0 0 0-2.004-8.799"/>
        <path fill="#54D275" d="M10.635 424.692c28.581 54.441 109.364 63.698 158.292 32.607 35.775-22.661 59.302-80.669 32.535-115.658-26.771-34.989-71.75-54.438-115.001-51.315-55.069 7.196-99.548 64.574-82.933 117.229 1.65 5.758 3.96 11.43 7.107 17.137"/>
        <path fill="#6CDF8A" d="M41.739 419.812c15.433 29.426 59.046 34.426 85.466 17.614 19.313-12.243 32.02-43.595 17.563-62.514-14.45-18.904-38.74-29.411-62.085-27.738-29.73 3.898-53.748 34.912-44.779 63.372a44.601 44.601 0 0 0 3.835 9.266"/>
        <path fill="#54D275" d="M167.77 54.593C195.583-3.005 271.278-14.31 316.383 17.29c32.987 23.013 53.816 83.301 28.088 120.485-25.72 37.177-68.163 58.454-108.522 56.04-51.332-6.44-91.762-65.653-75.171-121.13 1.66-6.072 3.938-12.058 6.994-18.092"/>
        <path fill="#6CDF8A" d="M255.76 80.2c12.298-25.532 45.771-30.543 65.719-16.537 14.583 10.208 23.804 36.93 12.42 53.412-11.367 16.478-30.142 25.902-47.99 24.844-22.699-2.858-40.576-29.105-33.238-53.701a42.772 42.772 0 0 1 3.09-8.018"/>
        <path fill="#F5F5F5" d="M68.042 348.08l107.422 51.049-59.443 4.17 7.3 6.248 64.656-3.122 62.116 34.204L248.898 631c12.349-.507 24.694-.955 37.042-1.272l-2.714-164.153L449 408.823c-1.807-2.984-2.83-6.441-3.047-9.974l-64.97 18.919 23.126-60.284h-6.247l-26.322 60.392-90.954 30.795-3.959-133.93 27.349-25.262 65.806-.903 3.054-6.102H311.56l62.064-57.33-2.084-9.377-42 36.833 16.825-64.723-5.093 2.033-22.207 71.873-41.388 36.297L268.289 97h-9.383l-1.046 103.145-50.06-45.841-9.39 1.033 57.359 56.263-3.947 131.986-56.538-46.558-5.216-44.805-4.175-7.28v45.837l-38.584-25.002-10.43-1.048 114.943 92.47-.758 61.993L136.88 365.79l-15.65-37.505-8.338-2.081 14.604 36.46L67 343.919l1.042 4.162z"/>
    </g>
</svg>
