<svg xmlns="http://www.w3.org/2000/svg" width="230" height="271" viewBox="0 0 230 271">
    <g fill="none" fill-rule="evenodd">
        <path fill="#2AC653" d="M62 71s-17.613 3.09-23.773 12.403C32.072 92.717 36.614 105 36.614 105s14.93-5.256 19.977-12.497C61.634 85.269 62 71 62 71"/>
        <path fill="#77E995" d="M52.053 82.333s-9.271 1.8-12.513 7.233c-3.239 5.436-.848 12.6-.848 12.6s7.863-3.061 10.51-7.284c2.658-4.226 2.85-12.549 2.85-12.549"/>
        <path fill="#47D76D" d="M2.757 213s-7.255 26.391 1.773 41.067c9.035 14.676 29.292 16.51 29.292 16.51s2.442-24.12-4.41-35.884C22.572 222.933 2.757 213 2.757 213"/>
        <path fill="#77E995" d="M12.82 234.313s-4.04 14.68.982 22.838c5.019 8.162 16.281 9.175 16.281 9.175s1.364-13.41-2.446-19.943c-3.806-6.541-14.817-12.07-14.817-12.07"/>
        <g>
            <path fill="#2AC653" d="M184.58 47.316c20.212 11.153 44.696-.467 44.696-.467S215.898 16.765 200.15 7.564C184.392-1.632 155 .137 155 .137s9.37 36.033 29.58 47.179z"/>
            <path fill="#77E995" d="M180.842 18.41s5.209 20.04 16.444 26.24c11.235 6.199 24.841-.275 24.841-.275S214.7 27.648 205.95 22.542c-8.764-5.11-25.107-4.131-25.107-4.131"/>
        </g>
    </g>
</svg>
