<svg xmlns="http://www.w3.org/2000/svg" width="179" height="259" viewBox="0 0 179 259">
    <g fill="none" fill-rule="evenodd">
        <path fill="#2AC653" d="M83.543 222.512s-9.8 11.663-8.713 21.121c1.09 9.456 10.788 14.995 10.788 14.995s6.86-11.61 6.185-19.105c-.676-7.487-8.26-17.011-8.26-17.011"/>
        <path fill="#77E995" d="M83.265 235.364s-5.063 6.252-4.2 11.577c.867 5.326 6.355 8.698 6.355 8.698s3.453-6.307 2.866-10.516c-.583-4.216-5.02-9.76-5.02-9.76"/>
        <path fill="#47D76D" d="M144.513.164s-2.62 23.427 7.042 34.694c9.668 11.265 27.158 10.095 27.158 10.095s-1.17-20.847-8.588-29.93C162.718 5.942 144.513.163 144.513.163"/>
        <path fill="#77E995" d="M155.95 16.936s-1.461 13.032 3.913 19.295c5.372 6.267 15.095 5.61 15.095 5.61s-.646-11.59-4.77-16.635c-4.12-5.05-14.238-8.27-14.238-8.27"/>
        <g>
            <path fill="#2AC653" d="M46.409 109.763c19.64-3.843 29.413-25.21 29.413-25.21s-25.665-12.549-41.254-9.892C18.976 77.324.45 94.874.45 94.874s26.323 18.738 45.96 14.89z"/>
            <path fill="#77E995" d="M27.801 92.628s14.638 10.422 25.556 8.285C64.274 98.776 69.696 86.89 69.696 86.89s-14.263-6.983-22.921-5.503c-8.67 1.485-18.974 11.24-18.974 11.24"/>
        </g>
    </g>
</svg>
